#!OML:ASF H:\Dans Jumps\Project 1\Capture day 1\Session 1\subject.ASF
:FULLY-SPECIFIED
:DEGREES
367
root 0.50708 16.7856 7.55179 2.26547 -1.37499 -0.531346
lowerback 7.37724 1.38366 -2.43423
upperback 1.96232 1.67198 0.58816
thorax -2.19401 0.841081 1.81985
lowerneck -8.76341 -0.23566 -2.14729
upperneck 27.2857 -0.611048 2.6522
head 10.1182 -0.197459 1.23915
rclavicle 5.684e-015 4.84538e-015
rhumerus -28.8615 -1.75546 -77.0851
rradius 37.2331
rwrist 35.5522
rhand -17.5353 -28.3338
rfingers 7.12502
rthumb 8.7188 -58.1338
lclavicle 5.684e-015 4.84538e-015
lhumerus -44.644 -20.033 79.5946
lradius 36.7569
lwrist 34.3197
lhand -24.9601 -5.3539
lfingers 7.12502
lthumb 1.55008 24.6202
rfemur -35.4991 -2.6526 20.9433
rtibia 37.6396
rfoot -1.79725 3.14393
rtoes 15.1909
lfemur -33.1911 11.0197 -20.9898
ltibia 36.5302
lfoot -3.61266 -0.785615
ltoes -6.03687
368
root 0.482454 16.574 7.64615 2.52157 -1.22181 -0.627385
lowerback 7.90491 1.37785 -2.71218
upperback 1.90445 1.63245 0.75168
thorax -2.55712 0.827841 2.13688
lowerneck -9.59817 -0.189499 -1.94379
upperneck 27.1497 -0.525957 2.4841
head 10.2284 -0.151845 1.15453
rclavicle -4.99214e-015 -4.96651e-015
rhumerus -27.2781 -3.61539 -77.2736
rradius 35.8427
rwrist 36.5587
rhand -18.0868 -29.2166
rfingers 7.12502
rthumb 8.18657 -59.038
lclavicle -4.99214e-015 -4.96651e-015
lhumerus -42.207 -18.0926 78.878
lradius 34.5981
lwrist 32.3054
lhand -26.1671 -5.96774
lfingers 7.12502
lthumb 0.384364 24.0117
rfemur -37.9882 -1.24974 20.8087
rtibia 42.1022
rfoot -4.45718 1.09181
rtoes 14.6683
lfemur -35.9806 10.2797 -20.7397
ltibia 41.5137
lfoot -5.6465 0.865066
ltoes -4.20817
369
root 0.457262 16.3803 7.74051 2.70435 -1.06898 -0.847754
lowerback 8.47427 1.41452 -2.83953
upperback 1.98688 1.66011 0.924898
thorax -2.79807 0.844765 2.37433
lowerneck -10.413 -0.193128 -1.77171
upperneck 26.8865 -0.527071 2.39328
head 10.291 -0.14093 1.09178
rclavicle 5.684e-016 -2.68359e-015
rhumerus -25.8366 -5.17851 -77.6387
rradius 34.7459
rwrist 37.3031
rhand -18.5964 -29.9375
rfingers 7.12502
rthumb 7.6947 -59.7775
lclavicle 5.684e-016 -2.68359e-015
lhumerus -39.7869 -16.0702 78.3159
lradius 32.6793
lwrist 30.45
lhand -27.4764 -6.74344
lfingers 7.12502
lthumb -0.880216 23.2345
rfemur -40.3305 -0.0746548 20.7915
rtibia 46.2598
rfoot -6.1509 -0.402111
rtoes 14.6273
lfemur -38.5751 9.66104 -20.2911
ltibia 46.1454
lfoot -7.02414 1.84268
ltoes -3.55864
370
root 0.437889 16.2211 7.84255 2.56743 -0.920966 -1.17771
lowerback 9.21133 1.48827 -2.73685
upperback 2.24245 1.75354 1.0869
thorax -2.94955 0.889398 2.46178
lowerneck -11.0441 -0.258676 -1.66988
upperneck 26.4519 -0.631717 2.41067
head 10.2578 -0.173639 1.06521
rclavicle 1.18215e-014 -3.03147e-015
rhumerus -24.7134 -6.04529 -78.1957
rradius 34.078
rwrist 37.6582
rhand -18.9791 -30.399
rfingers 7.12502
rthumb 7.32531 -60.2522
lclavicle 1.18215e-014 -3.03147e-015
lhumerus -37.669 -14.4071 78.1278
lradius 31.2223
lwrist 29.2289
lhand -28.5892 -7.5898
lfingers 7.12502
lthumb -1.95496 22.381
rfemur -41.8719 0.712492 20.9243
rtibia 49.6234
rfoot -7.31692 -1.23645
rtoes 14.3552
lfemur -40.3655 9.2518 -19.7032
ltibia 50.0385
lfoot -7.98395 2.42317
ltoes -4.4572
371
root 0.428221 16.1091 7.95374 2.00428 -0.774763 -1.54732
lowerback 10.1732 1.57579 -2.42518
upperback 2.64399 1.88197 1.21123
thorax -3.06664 0.947634 2.3837
lowerneck -11.3356 -0.381575 -1.61331
upperneck 25.8308 -0.827494 2.49967
head 10.0935 -0.247225 1.05845
rclavicle 1.84186e-014 -2.33572e-015
rhumerus -23.9669 -6.01133 -78.9193
rradius 33.7966
rwrist 37.6818
rhand -19.2148 -30.5416
rfingers 7.12502
rthumb 7.09776 -60.4026
lclavicle 1.84186e-014 -2.33572e-015
lhumerus -36.0539 -13.5371 78.4602
lradius 30.3512
lwrist 28.9859
lhand -29.2372 -8.30343
lfingers 7.12502
lthumb -2.5808 21.6607
rfemur -42.2061 1.05115 21.1803
rtibia 51.9273
rfoot -8.48893 -1.55439
rtoes 13.5323
lfemur -40.996 9.04273 -19.0969
ltibia 52.9425
lfoot -8.86427 2.93354
ltoes -5.85302
372
root 0.430132 16.0445 8.06993 1.08295 -0.62477 -1.9047
lowerback 11.3267 1.64305 -1.95442
upperback 3.11808 2.00165 1.2888
thorax -3.20212 1.00037 2.16289
lowerneck -11.2906 -0.541835 -1.63459
upperneck 25.1556 -1.0871 2.69557
head 9.84905 -0.349011 1.09443
rclavicle -3.83282e-015 1.78906e-015
rhumerus -23.6152 -5.04899 -79.7571
rradius 33.8722
rwrist 37.5494
rhand -19.2949 -30.4191
rfingers 7.12502
rthumb 7.02047 -60.2826
lclavicle -3.83282e-015 1.78906e-015
lhumerus -35.0221 -13.6952 79.3446
lradius 30.0676
lwrist 29.7425
lhand -29.2918 -8.7499
lfingers 7.12502
lthumb -2.6335 21.2136
rfemur -41.3966 1.01824 21.5092
rtibia 53.1664
rfoot -9.65629 -1.64404
rtoes 12.302
lfemur -40.5944 8.98034 -18.5763
ltibia 54.8752
lfoot -9.53446 3.51927
ltoes -7.41982
373
root 0.440109 16.0222 8.18342 0.0919598 -0.445285 -2.09297
lowerback 12.4622 1.66309 -1.57105
upperback 3.56031 2.05564 1.29981
thorax -3.352 1.02203 1.92958
lowerneck -11.0096 -0.702623 -1.63474
upperneck 24.5704 -1.35012 2.88029
head 9.59468 -0.454681 1.1237
rclavicle -8.31168e-015 -1.53561e-014
rhumerus -23.528 -3.42489 -80.64
rradius 34.1396
rwrist 37.5223
rhand -19.2609 -30.1257
rfingers 7.12502
rthumb 7.05331 -59.9881
lclavicle -8.31168e-015 -1.53561e-014
lhumerus -34.547 -14.7767 80.6933
lradius 30.2921
lwrist 31.1097
lhand -28.8211 -8.76292
lfingers 7.12502
lthumb -2.17896 21.2057
rfemur -39.998 0.69335 21.7126
rtibia 53.5999
rfoot -10.7187 -1.67379
rtoes 10.9248
lfemur -39.6364 8.94944 -18.3221
ltibia 55.9995
lfoot -9.95822 4.15614
ltoes -8.64208
374
root 0.452448 16.026 8.29151 -0.567447 -0.270634 -2.1651
lowerback 13.2262 1.64254 -1.33369
upperback 3.88076 2.0473 1.27489
thorax -3.42331 1.01458 1.75739
lowerneck -10.7183 -0.840538 -1.62557
upperneck 24.2604 -1.58305 3.04962
head 9.43719 -0.547475 1.15234
rclavicle 2.17918e-014 1.20016e-014
rhumerus -23.5476 -1.48619 -81.5047
rradius 34.4935
rwrist 37.6625
rhand -19.1576 -29.8222
rfingers 7.12502
rthumb 7.15304 -59.6813
lclavicle 2.17918e-014 1.20016e-014
lhumerus -34.4964 -16.4544 82.3425
lradius 30.8675
lwrist 32.4403
lhand -28.0866 -8.30583
lfingers 7.12502
lthumb -1.4696 21.6689
rfemur -38.7196 0.24397 21.8221
rtibia 53.556
rfoot -11.5573 -1.69815
rtoes 9.78502
lfemur -38.7662 8.90863 -18.2777
ltibia 56.5737
lfoot -10.1614 4.78167
ltoes -9.22824
375
root 0.463355 16.041 8.39393 -0.741444 -0.112365 -2.11675
lowerback 13.4992 1.60477 -1.31847
upperback 4.05581 1.99414 1.23478
thorax -3.3838 0.986552 1.71168
lowerneck -10.4774 -0.949437 -1.59642
upperneck 24.2114 -1.77228 3.16967
head 9.38028 -0.622264 1.16781
rclavicle -1.57847e-014 -1.67476e-014
rhumerus -23.5718 0.365409 -82.2622
rradius 34.853
rwrist 37.8952
rhand -19.0525 -29.5862
rfingers 7.12502
rthumb 7.25447 -59.4419
lclavicle -1.57847e-014 -1.67476e-014
lhumerus -34.7278 -18.279 84.1095
lradius 31.6028
lwrist 33.0623
lhand -27.3958 -7.66346
lfingers 7.12502
lthumb -0.802323 22.3148
rfemur -37.924 -0.181988 21.8098
rtibia 53.3138
rfoot -12.1643 -1.74881
rtoes 9.12606
lfemur -38.2808 8.80661 -18.4255
ltibia 56.7819
lfoot -10.2168 5.36924
ltoes -9.37899
